Coordinates
version=1
nRows=26
nColumns=24
inDegrees=yes

Units are S.I. units (second, meters, Newtons, ...)
Angles are in degrees.

endheader
time	pelvis_tilt	pelvis_list	pelvis_rotation	pelvis_tx	pelvis_ty	pelvis_tz	hip_flexion_r	hip_adduction_r	hip_rotation_r	knee_angle_r	ankle_angle_r	subtalar_angle_r	mtp_angle_r	hip_flexion_l	hip_adduction_l	hip_rotation_l	knee_angle_l	ankle_angle_l	subtalar_angle_l	mtp_angle_l	lumbar_extension	lumbar_bending	lumbar_rotation
      1.05866667	      2.03592525	      1.09322893	     -6.04275347	     -0.07781933	      0.89198201	      0.34405273	    -21.52439382	      2.62372753	     -2.19292885	     -5.24820870	     20.64413579	     12.57279422	      6.13622786	     21.95486691	      0.76367672	     -7.72835746	     -2.57901832	      3.56368073	     -7.36575251	      3.29027388	     -9.89134453	     -1.53612518	     10.06087604
      1.06283333	      1.97477264	      1.16845020	     -6.12905974	     -0.07221994	      0.89075982	      0.34397444	    -21.57528217	      2.44583890	     -2.25868376	     -5.80217946	     20.86737033	     12.84871702	      6.33105268	     22.16912518	      0.85368178	     -7.64989309	     -3.11938698	      3.47381262	     -7.26735481	      3.33118397	     -9.82310730	     -1.68952914	     10.14935489
      1.06700000	      1.92807367	      1.26325481	     -6.22108001	     -0.06658142	      0.88961041	      0.34391685	    -21.64236260	      2.24885564	     -2.22890021	     -6.35839706	     21.07823289	     12.95464711	      6.46185710	     22.33601654	      0.96940808	     -7.53182681	     -3.66527345	      3.34856207	     -7.24319934	      3.37007279	     -9.77783932	     -1.88391754	     10.18695784
      1.07116667	      1.87720003	      1.36353266	     -6.29598214	     -0.06090762	      0.88849994	      0.34381816	    -21.67811735	      2.04509273	     -2.28923108	     -6.96930869	     21.25211900	     13.17643239	      6.63468537	     22.52527113	      1.09395626	     -7.45812454	     -4.31102271	      3.17394017	     -7.22086119	      3.43305174	     -9.71039577	     -2.08095523	     10.24320289
      1.07533333	      1.84054946	      1.48318769	     -6.36074848	     -0.05517807	      0.88746804	      0.34369381	    -21.72321018	      1.81997154	     -2.35706621	     -7.59287105	     21.38057966	     13.39659148	      6.83617505	     22.68968539	      1.24659046	     -7.39481076	     -4.99374733	      2.95372177	     -7.22429627	      3.51577033	     -9.66253502	     -2.28745208	     10.27980093
      1.07950000	      1.81156050	      1.61046031	     -6.41571192	     -0.04941624	      0.88650213	      0.34355126	    -21.76574196	      1.58793683	     -2.42751407	     -8.23819730	     21.45625025	     13.59891779	      7.05857644	     22.84262217	      1.41291003	     -7.33421667	     -5.71602071	      2.68451285	     -7.27149176	      3.61256340	     -9.61846159	     -2.51340669	     10.30315378
      1.08366667	      1.88937032	      1.76756068	     -6.48692408	     -0.04358095	      0.88576565	      0.34339660	    -21.90506341	      1.29292969	     -2.59802778	     -8.91032912	     21.43641738	     13.94913659	      9.77484717	     22.84235292	      1.62266929	     -7.34079834	     -6.40054088	      2.29334254	     -7.38110301	      4.89629411	     -9.71055795	     -2.77118510	     10.30641017
      1.08783333	      1.79931034	      1.88755194	     -6.48378966	     -0.03774994	      0.88482527	      0.34319046	    -21.87635699	      1.10196876	     -2.62028839	     -9.57281438	     21.38010400	     13.95070091	      9.85973865	     23.08297380	      1.79231904	     -7.23460650	     -7.24862397	      2.01421436	     -7.49922292	      4.93488029	     -9.56120453	     -2.98972159	     10.31488229
      1.09200000	      1.77933672	      2.03892497	     -6.50875485	     -0.03186769	      0.88406890	      0.34298395	    -21.88224427	      0.84519084	     -2.71782173	    -10.31251768	     21.32151280	     14.14930083	     10.00958670	     23.21315499	      1.99713914	     -7.20402822	     -8.05124024	      1.63504389	     -7.63846127	      4.99638382	     -9.50696941	     -3.24109488	     10.29990883
      1.09616667	      1.84141253	      2.22953801	     -6.49434375	     -0.02587036	      0.88347961	      0.34268911	    -21.98122114	      0.53760211	     -2.97751453	    -11.04592606	     21.20424448	     14.51847231	     11.03407550	     23.23113039	      2.27645484	     -7.13535175	     -8.82748142	      1.20440066	     -7.92219186	      5.41573577	     -9.53944680	     -3.55114095	     10.28167997
      1.10033333	      1.78760473	      2.36463795	     -6.50659643	     -0.01995445	      0.88283330	      0.34246705	    -21.91110922	      0.30942316	     -2.98308530	    -11.86042009	     20.98739562	     14.50490725	     11.17900630	     23.40119468	      2.45798961	     -7.12887670	     -9.69041218	      0.83536745	     -8.06197411	      5.46315432	     -9.44426339	     -3.77515552	     10.23147782
      1.10450000	      1.77173088	      2.53082128	     -6.48375206	     -0.01394760	      0.88229911	      0.34216035	    -21.86839220	      0.04057553	     -3.13265088	    -12.70426726	     20.73822807	     14.69579459	     11.41019065	     23.51868825	      2.69440356	     -7.10159691	    -10.54447695	      0.45065343	     -8.26973585	      5.53111243	     -9.37627727	     -4.04133632	     10.16988276
      1.10866667	      1.80634570	      2.69805181	     -6.43574043	     -0.00791155	      0.88191175	      0.34179987	    -21.87079029	     -0.23052949	     -3.31884923	    -13.55557462	     20.34440558	     14.81627727	     15.83556323	     23.56084993	      2.95764476	     -6.98955465	    -11.36835642	      0.04034973	     -8.66108692	      6.75227913	     -9.38338660	     -4.29794743	     10.11351762
      1.11283333	      1.81209760	      2.86565315	     -6.39702005	     -0.00185006	      0.88156351	      0.34145812	    -21.80312170	     -0.50562829	     -3.47148533	    -14.49011788	     19.99647221	     14.99150562	     15.91601222	     23.65457181	      3.19455785	     -7.00713330	    -12.25937455	     -0.26961961	     -8.80652992	      6.76274387	     -9.34397206	     -4.55864293	     10.02417238
      1.11700000	      1.81868682	      3.03776992	     -6.33909390	      0.00424455	      0.88129491	      0.34106234	    -21.71193158	     -0.78666626	     -3.64967905	    -15.46871846	     19.57705502	     15.16959207	     16.09201916	     23.73172007	      3.45096080	     -6.96162212	    -13.12979912	     -0.56844882	     -9.05411163	      6.77761907	     -9.30268540	     -4.82098097	      9.92951159
      1.12116667	      1.83474865	      3.21375258	     -6.27256966	      0.01039938	      0.88114269	      0.34066631	    -21.62945841	     -1.06673006	     -3.78366608	    -16.43506141	     19.00433465	     15.26584553	     16.23448163	     23.78610200	      3.71099224	     -6.92936229	    -13.99663119	     -0.80313320	     -9.25305586	      6.78482335	     -9.25452191	     -5.10870339	      9.85093211
      1.12533333	      1.85932331	      3.38349264	     -6.19279042	      0.01652653	      0.88106671	      0.34019476	    -21.49028048	     -1.35688009	     -3.99413238	    -17.52453503	     18.40428433	     15.40983022	     20.07620143	     23.80877888	      3.98905851	     -6.78089135	    -14.81747245	     -1.06573224	     -9.69275018	      6.93416099	     -9.24241301	     -5.34723996	      9.74030116
      1.12950000	      1.88060506	      3.55455393	     -6.10411799	      0.02271907	      0.88106113	      0.33973995	    -21.34015469	     -1.64286596	     -4.17015848	    -18.62396412	     17.74649398	     15.54457248	     20.13284036	     23.85445715	      4.24412189	     -6.76537176	    -15.71065939	     -1.13457687	     -9.75876693	      6.93213816	     -9.20455236	     -5.62378788	      9.63897202
      1.13366667	      1.90461555	      3.71547633	     -6.01129626	      0.02889844	      0.88113395	      0.33925127	    -21.14394220	     -1.92753083	     -4.35124889	    -19.81022360	     17.05428966	     15.69429060	     20.23745779	     23.88196793	      4.49706750	     -6.70467611	    -16.58172439	     -1.17011029	     -9.91241434	      6.92610515	     -9.17816358	     -5.86887664	      9.52810188
      1.13783333	      1.93875024	      3.87730877	     -5.91525462	      0.03509015	      0.88129632	      0.33873539	    -20.91926590	     -2.22441284	     -4.54201373	    -21.05761821	     16.30702739	     15.85012768	     20.38091676	     23.87811272	      4.75759296	     -6.62009619	    -17.42188428	     -1.15500638	    -10.07526038	      6.91572535	     -9.16201059	     -6.11246729	      9.41610945
      1.14200000	      1.99728774	      4.03424461	     -5.80238000	      0.04125942	      0.88155558	      0.33812106	    -20.67197139	     -2.53903644	     -4.80959276	    -22.38058417	     15.46870805	     16.07826584	     24.28770547	     23.81729067	      5.04681108	     -6.41954411	    -18.19944079	     -1.13785239	    -10.43833303	      6.52730978	     -9.19175750	     -6.30010798	      9.25640972
      1.14616667	      2.02814587	      4.19839815	     -5.71177695	      0.04745080	      0.88184160	      0.33759539	    -20.34928787	     -2.85988175	     -4.99263609	    -23.77940178	     14.62731400	     16.18866551	     24.35544890	     23.78978427	      5.29802379	     -6.38512203	    -19.00356476	     -0.99070708	    -10.40995165	      6.51877401	     -9.16292174	     -6.54409478	      9.15385284
      1.15033333	      2.07496068	      4.34711589	     -5.60861656	      0.05362824	      0.88220823	      0.33701484	    -20.01145934	     -3.17609454	     -5.19125048	    -25.22001067	     13.72002682	     16.35579529	     24.48561184	     23.72339816	      5.55253405	     -6.28453507	    -19.77370356	     -0.78999068	    -10.49211107	      6.49823584	     -9.16596193	     -6.75668582	      9.03761699
      1.15450000	      2.15077674	      4.49583710	     -5.50957755	      0.05980904	      0.88269091	      0.33645675	    -19.68069888	     -3.49629579	     -5.35337382	    -26.67774455	     12.70127942	     16.45653898	     24.58366128	     23.59217088	      5.81266252	     -6.16351514	    -20.48545628	     -0.53578963	    -10.57130096	      6.48282589	     -9.20552106	     -6.99796828	      8.94704364
      1.15866667	      2.20044278	      4.64018477	     -5.40752695	      0.06592713	      0.88315136	      0.33582527	    -19.24289432	     -3.84256726	     -5.58706958	    -28.27374222	     11.73422187	     16.65497457	     24.79358089	     23.47535147	      6.07014439	     -6.04854468	    -21.16172494	     -0.27066945	    -10.63447421	      6.44281272	     -9.21210942	     -7.16459034	      8.80906261
      1.16283333	      2.32971913	      4.77348531	     -5.31418925	      0.07205082	      0.88380725	      0.33525698	    -18.89335538	     -4.17041113	     -5.74687541	    -29.82281256	     10.61560038	     16.65537173	     24.85302417	     23.23778184	      6.31906979	     -5.94615906	    -21.78723425	      0.07406654	    -10.70518775	      6.43334053	     -9.32396225	     -7.36838019	      8.74432746
